<mxfile host="www.draw.io" modified="2020-02-17T14:09:19.617Z" agent="Mozilla/5.0 (Windows NT 10.0; Win64; x64) AppleWebKit/537.36 (KHTML, like Gecko) Chrome/79.0.3945.130 Safari/537.36 OPR/66.0.3515.72" etag="xc_RW6cf_NUQy_YBXXG0" version="12.7.0" type="github">
  <diagram id="C5RBs43oDa-KdzZeNtuy" name="Page-1">
    <mxGraphModel dx="663" dy="433" grid="1" gridSize="10" guides="1" tooltips="1" connect="1" arrows="1" fold="1" page="1" pageScale="1" pageWidth="827" pageHeight="1169" math="0" shadow="0">
      <root>
        <mxCell id="WIyWlLk6GJQsqaUBKTNV-0"/>
        <mxCell id="WIyWlLk6GJQsqaUBKTNV-1" parent="WIyWlLk6GJQsqaUBKTNV-0"/>
        <mxCell id="lrDC-4FxMSfqcWCOpKcX-15" style="edgeStyle=orthogonalEdgeStyle;rounded=0;orthogonalLoop=1;jettySize=auto;html=1;exitX=0.5;exitY=1;exitDx=0;exitDy=0;entryX=0.5;entryY=0;entryDx=0;entryDy=0;fillColor=#dae8fc;strokeColor=#6c8ebf;" edge="1" parent="WIyWlLk6GJQsqaUBKTNV-1" source="lrDC-4FxMSfqcWCOpKcX-0" target="lrDC-4FxMSfqcWCOpKcX-4">
          <mxGeometry relative="1" as="geometry"/>
        </mxCell>
        <mxCell id="lrDC-4FxMSfqcWCOpKcX-16" style="edgeStyle=orthogonalEdgeStyle;rounded=0;orthogonalLoop=1;jettySize=auto;html=1;exitX=0.5;exitY=1;exitDx=0;exitDy=0;entryX=0.5;entryY=0;entryDx=0;entryDy=0;fillColor=#dae8fc;strokeColor=#6c8ebf;" edge="1" parent="WIyWlLk6GJQsqaUBKTNV-1" source="lrDC-4FxMSfqcWCOpKcX-0" target="lrDC-4FxMSfqcWCOpKcX-6">
          <mxGeometry relative="1" as="geometry"/>
        </mxCell>
        <mxCell id="lrDC-4FxMSfqcWCOpKcX-17" style="edgeStyle=orthogonalEdgeStyle;rounded=0;orthogonalLoop=1;jettySize=auto;html=1;exitX=0.5;exitY=1;exitDx=0;exitDy=0;entryX=0.5;entryY=0;entryDx=0;entryDy=0;fillColor=#dae8fc;strokeColor=#6c8ebf;" edge="1" parent="WIyWlLk6GJQsqaUBKTNV-1" source="lrDC-4FxMSfqcWCOpKcX-0" target="lrDC-4FxMSfqcWCOpKcX-8">
          <mxGeometry relative="1" as="geometry"/>
        </mxCell>
        <mxCell id="lrDC-4FxMSfqcWCOpKcX-22" style="edgeStyle=none;rounded=0;orthogonalLoop=1;jettySize=auto;html=1;exitX=0.697;exitY=1.04;exitDx=0;exitDy=0;entryX=0.188;entryY=-0.007;entryDx=0;entryDy=0;entryPerimeter=0;exitPerimeter=0;" edge="1" parent="WIyWlLk6GJQsqaUBKTNV-1" source="lrDC-4FxMSfqcWCOpKcX-0" target="lrDC-4FxMSfqcWCOpKcX-6">
          <mxGeometry relative="1" as="geometry"/>
        </mxCell>
        <mxCell id="lrDC-4FxMSfqcWCOpKcX-0" value="Background" style="rounded=0;whiteSpace=wrap;html=1;" vertex="1" parent="WIyWlLk6GJQsqaUBKTNV-1">
          <mxGeometry x="313.5" y="170" width="120" height="60" as="geometry"/>
        </mxCell>
        <mxCell id="lrDC-4FxMSfqcWCOpKcX-18" style="edgeStyle=orthogonalEdgeStyle;rounded=0;orthogonalLoop=1;jettySize=auto;html=1;exitX=0.5;exitY=1;exitDx=0;exitDy=0;entryX=0.603;entryY=-0.017;entryDx=0;entryDy=0;entryPerimeter=0;fillColor=#d5e8d4;strokeColor=#82b366;" edge="1" parent="WIyWlLk6GJQsqaUBKTNV-1" source="lrDC-4FxMSfqcWCOpKcX-1" target="lrDC-4FxMSfqcWCOpKcX-4">
          <mxGeometry relative="1" as="geometry">
            <Array as="points">
              <mxPoint x="547" y="290"/>
              <mxPoint x="312" y="290"/>
            </Array>
          </mxGeometry>
        </mxCell>
        <mxCell id="lrDC-4FxMSfqcWCOpKcX-19" style="edgeStyle=orthogonalEdgeStyle;rounded=0;orthogonalLoop=1;jettySize=auto;html=1;exitX=0.5;exitY=1;exitDx=0;exitDy=0;entryX=0.586;entryY=0.006;entryDx=0;entryDy=0;entryPerimeter=0;fillColor=#d5e8d4;strokeColor=#82b366;" edge="1" parent="WIyWlLk6GJQsqaUBKTNV-1" source="lrDC-4FxMSfqcWCOpKcX-1" target="lrDC-4FxMSfqcWCOpKcX-6">
          <mxGeometry relative="1" as="geometry">
            <Array as="points">
              <mxPoint x="547" y="290"/>
              <mxPoint x="470" y="290"/>
            </Array>
          </mxGeometry>
        </mxCell>
        <mxCell id="lrDC-4FxMSfqcWCOpKcX-20" style="edgeStyle=orthogonalEdgeStyle;rounded=0;orthogonalLoop=1;jettySize=auto;html=1;exitX=0.5;exitY=1;exitDx=0;exitDy=0;entryX=0.586;entryY=-0.006;entryDx=0;entryDy=0;entryPerimeter=0;fillColor=#d5e8d4;strokeColor=#82b366;" edge="1" parent="WIyWlLk6GJQsqaUBKTNV-1" source="lrDC-4FxMSfqcWCOpKcX-1" target="lrDC-4FxMSfqcWCOpKcX-8">
          <mxGeometry relative="1" as="geometry">
            <Array as="points">
              <mxPoint x="547" y="290"/>
              <mxPoint x="630" y="290"/>
            </Array>
          </mxGeometry>
        </mxCell>
        <mxCell id="lrDC-4FxMSfqcWCOpKcX-24" style="edgeStyle=none;rounded=0;orthogonalLoop=1;jettySize=auto;html=1;entryX=0.721;entryY=0.02;entryDx=0;entryDy=0;entryPerimeter=0;exitX=0.223;exitY=0.996;exitDx=0;exitDy=0;exitPerimeter=0;" edge="1" parent="WIyWlLk6GJQsqaUBKTNV-1" source="lrDC-4FxMSfqcWCOpKcX-1" target="lrDC-4FxMSfqcWCOpKcX-6">
          <mxGeometry relative="1" as="geometry">
            <mxPoint x="517" y="230" as="sourcePoint"/>
          </mxGeometry>
        </mxCell>
        <mxCell id="lrDC-4FxMSfqcWCOpKcX-1" value="Popup" style="rounded=0;whiteSpace=wrap;html=1;" vertex="1" parent="WIyWlLk6GJQsqaUBKTNV-1">
          <mxGeometry x="486.5" y="170" width="120" height="60" as="geometry"/>
        </mxCell>
        <mxCell id="lrDC-4FxMSfqcWCOpKcX-9" style="edgeStyle=orthogonalEdgeStyle;rounded=0;orthogonalLoop=1;jettySize=auto;html=1;exitX=0.75;exitY=0;exitDx=0;exitDy=0;entryX=0.75;entryY=1;entryDx=0;entryDy=0;" edge="1" parent="WIyWlLk6GJQsqaUBKTNV-1" source="lrDC-4FxMSfqcWCOpKcX-2" target="lrDC-4FxMSfqcWCOpKcX-4">
          <mxGeometry relative="1" as="geometry"/>
        </mxCell>
        <mxCell id="lrDC-4FxMSfqcWCOpKcX-25" style="edgeStyle=orthogonalEdgeStyle;rounded=0;orthogonalLoop=1;jettySize=auto;html=1;exitX=0;exitY=0.5;exitDx=0;exitDy=0;entryX=0;entryY=0.5;entryDx=0;entryDy=0;elbow=vertical;fillColor=#f8cecc;strokeColor=#b85450;dashed=1;" edge="1" parent="WIyWlLk6GJQsqaUBKTNV-1" source="lrDC-4FxMSfqcWCOpKcX-2" target="lrDC-4FxMSfqcWCOpKcX-0">
          <mxGeometry relative="1" as="geometry">
            <Array as="points">
              <mxPoint x="190" y="460"/>
              <mxPoint x="190" y="200"/>
            </Array>
          </mxGeometry>
        </mxCell>
        <mxCell id="lrDC-4FxMSfqcWCOpKcX-26" value="Not&lt;br&gt;Possible" style="text;html=1;align=center;verticalAlign=middle;resizable=0;points=[];labelBackgroundColor=#ffffff;" vertex="1" connectable="0" parent="lrDC-4FxMSfqcWCOpKcX-25">
          <mxGeometry x="-0.1333" relative="1" as="geometry">
            <mxPoint as="offset"/>
          </mxGeometry>
        </mxCell>
        <mxCell id="lrDC-4FxMSfqcWCOpKcX-2" value="Index" style="rounded=0;whiteSpace=wrap;html=1;" vertex="1" parent="WIyWlLk6GJQsqaUBKTNV-1">
          <mxGeometry x="240" y="430" width="120" height="60" as="geometry"/>
        </mxCell>
        <mxCell id="lrDC-4FxMSfqcWCOpKcX-10" style="edgeStyle=orthogonalEdgeStyle;rounded=0;orthogonalLoop=1;jettySize=auto;html=1;exitX=0.25;exitY=1;exitDx=0;exitDy=0;entryX=0.25;entryY=0;entryDx=0;entryDy=0;" edge="1" parent="WIyWlLk6GJQsqaUBKTNV-1" source="lrDC-4FxMSfqcWCOpKcX-4" target="lrDC-4FxMSfqcWCOpKcX-2">
          <mxGeometry relative="1" as="geometry"/>
        </mxCell>
        <mxCell id="lrDC-4FxMSfqcWCOpKcX-4" value="Content" style="rounded=0;whiteSpace=wrap;html=1;" vertex="1" parent="WIyWlLk6GJQsqaUBKTNV-1">
          <mxGeometry x="240" y="320" width="120" height="60" as="geometry"/>
        </mxCell>
        <mxCell id="lrDC-4FxMSfqcWCOpKcX-11" style="edgeStyle=orthogonalEdgeStyle;rounded=0;orthogonalLoop=1;jettySize=auto;html=1;exitX=0.75;exitY=0;exitDx=0;exitDy=0;entryX=0.75;entryY=1;entryDx=0;entryDy=0;" edge="1" parent="WIyWlLk6GJQsqaUBKTNV-1" source="lrDC-4FxMSfqcWCOpKcX-5" target="lrDC-4FxMSfqcWCOpKcX-6">
          <mxGeometry relative="1" as="geometry"/>
        </mxCell>
        <mxCell id="lrDC-4FxMSfqcWCOpKcX-5" value="Index" style="rounded=0;whiteSpace=wrap;html=1;" vertex="1" parent="WIyWlLk6GJQsqaUBKTNV-1">
          <mxGeometry x="400" y="430" width="120" height="60" as="geometry"/>
        </mxCell>
        <mxCell id="lrDC-4FxMSfqcWCOpKcX-12" style="edgeStyle=orthogonalEdgeStyle;rounded=0;orthogonalLoop=1;jettySize=auto;html=1;exitX=0.25;exitY=1;exitDx=0;exitDy=0;entryX=0.25;entryY=0;entryDx=0;entryDy=0;" edge="1" parent="WIyWlLk6GJQsqaUBKTNV-1" source="lrDC-4FxMSfqcWCOpKcX-6" target="lrDC-4FxMSfqcWCOpKcX-5">
          <mxGeometry relative="1" as="geometry"/>
        </mxCell>
        <mxCell id="lrDC-4FxMSfqcWCOpKcX-21" style="rounded=0;orthogonalLoop=1;jettySize=auto;html=1;exitX=0.25;exitY=0;exitDx=0;exitDy=0;entryX=0.75;entryY=1;entryDx=0;entryDy=0;" edge="1" parent="WIyWlLk6GJQsqaUBKTNV-1" source="lrDC-4FxMSfqcWCOpKcX-6" target="lrDC-4FxMSfqcWCOpKcX-0">
          <mxGeometry relative="1" as="geometry"/>
        </mxCell>
        <mxCell id="lrDC-4FxMSfqcWCOpKcX-23" style="edgeStyle=none;rounded=0;orthogonalLoop=1;jettySize=auto;html=1;exitX=0.785;exitY=0.033;exitDx=0;exitDy=0;entryX=0.299;entryY=0.977;entryDx=0;entryDy=0;entryPerimeter=0;exitPerimeter=0;" edge="1" parent="WIyWlLk6GJQsqaUBKTNV-1" source="lrDC-4FxMSfqcWCOpKcX-6" target="lrDC-4FxMSfqcWCOpKcX-1">
          <mxGeometry relative="1" as="geometry"/>
        </mxCell>
        <mxCell id="lrDC-4FxMSfqcWCOpKcX-6" value="Content" style="rounded=0;whiteSpace=wrap;html=1;" vertex="1" parent="WIyWlLk6GJQsqaUBKTNV-1">
          <mxGeometry x="400" y="320" width="120" height="60" as="geometry"/>
        </mxCell>
        <mxCell id="lrDC-4FxMSfqcWCOpKcX-13" style="edgeStyle=orthogonalEdgeStyle;rounded=0;orthogonalLoop=1;jettySize=auto;html=1;exitX=0.75;exitY=0;exitDx=0;exitDy=0;entryX=0.75;entryY=1;entryDx=0;entryDy=0;" edge="1" parent="WIyWlLk6GJQsqaUBKTNV-1" source="lrDC-4FxMSfqcWCOpKcX-7" target="lrDC-4FxMSfqcWCOpKcX-8">
          <mxGeometry relative="1" as="geometry"/>
        </mxCell>
        <mxCell id="lrDC-4FxMSfqcWCOpKcX-7" value="Index" style="rounded=0;whiteSpace=wrap;html=1;" vertex="1" parent="WIyWlLk6GJQsqaUBKTNV-1">
          <mxGeometry x="560" y="430" width="120" height="60" as="geometry"/>
        </mxCell>
        <mxCell id="lrDC-4FxMSfqcWCOpKcX-14" style="edgeStyle=orthogonalEdgeStyle;rounded=0;orthogonalLoop=1;jettySize=auto;html=1;exitX=0.25;exitY=1;exitDx=0;exitDy=0;entryX=0.25;entryY=0;entryDx=0;entryDy=0;" edge="1" parent="WIyWlLk6GJQsqaUBKTNV-1" source="lrDC-4FxMSfqcWCOpKcX-8" target="lrDC-4FxMSfqcWCOpKcX-7">
          <mxGeometry relative="1" as="geometry"/>
        </mxCell>
        <mxCell id="lrDC-4FxMSfqcWCOpKcX-8" value="Content" style="rounded=0;whiteSpace=wrap;html=1;" vertex="1" parent="WIyWlLk6GJQsqaUBKTNV-1">
          <mxGeometry x="560" y="320" width="120" height="60" as="geometry"/>
        </mxCell>
        <mxCell id="lrDC-4FxMSfqcWCOpKcX-27" value="" style="endArrow=classic;html=1;dashed=1;edgeStyle=orthogonalEdgeStyle;curved=1;fillColor=#f8cecc;strokeColor=#b85450;" edge="1" parent="WIyWlLk6GJQsqaUBKTNV-1" target="lrDC-4FxMSfqcWCOpKcX-28">
          <mxGeometry width="50" height="50" relative="1" as="geometry">
            <mxPoint x="550" y="290" as="sourcePoint"/>
            <mxPoint x="690" y="230" as="targetPoint"/>
          </mxGeometry>
        </mxCell>
        <mxCell id="lrDC-4FxMSfqcWCOpKcX-28" value="browser.tabs.query({...})&lt;br style=&quot;font-size: 10px;&quot;&gt;.then(send message to each tab)" style="text;html=1;strokeColor=none;fillColor=none;align=left;verticalAlign=middle;whiteSpace=wrap;rounded=0;fontFamily=Courier New;fontSize=10;" vertex="1" parent="WIyWlLk6GJQsqaUBKTNV-1">
          <mxGeometry x="620" y="200" width="200" height="20" as="geometry"/>
        </mxCell>
      </root>
    </mxGraphModel>
  </diagram>
</mxfile>
